:SAMPLES-PER-SECOND 30
:FULLY-SPECIFIED
:DEGREES
116
root  -60.5322 40.6045 19.321 -175.96 26.4688 172.022
RightUpLeg  -33.2339 -42.2191 4.30383
RightLeg  15.2671 -13.9371 -2.18083
RightFoot  -2.57966 0.00675272 -0.309687
RightToes  0.00048216 0.542163 -0.142577
Spine  28.4904 1.80598 -0.773692
Spine1  5.73149 2.59261 -2.73304
HEad  -17.2632 -23.7977 12.7467
LeftShoulder1  9.98369 -17.0806 -42.1006
LeftArm  -20.4127 -0.677265 -21.0429
LeftForeArm  2.39787 -59.0976 -18.9888
LeftHand  -0.25398 0.0180481 5.50724
RightShoulder  5.63304 12.8247 28.4879
RightArm  23.042 42.3386 59.8541
RightForeArm  -34.2421 23.1752 6.66455
RightHand  -0.0452202 -4.94501 -3.09504
LeftUpLeg  -6.3387 10.8193 5.84319
LeftLeg  -0.977846 55.9482 -9.35703
LeftFoot  6.25639 0.306086 -2.22318
LeftToes  1.06246e-005 4.65856e-005 -8.18501e-006
117
root  -59.6256 40.6028 18.8972 -176.425 28.7257 172.261
RightUpLeg  -30.3551 -39.718 3.07819
RightLeg  15.3542 -18.6681 -2.33073
RightFoot  -2.82482 0.182536 -2.71852
RightToes  0.00048216 0.542163 -0.142577
Spine  25.7371 1.80127 0.41825
Spine1  5.47659 2.76608 -2.85435
HEad  -14.665 -24.5231 11.611
LeftShoulder1  9.90881 -16.5259 -43.0042
LeftArm  -19.3318 3.88266 -19.2267
LeftForeArm  3.47336 -61.6136 -21.1609
LeftHand  -0.25398 0.0180481 5.50724
RightShoulder  5.83924 12.7098 30.0399
RightArm  25.4809 40.0083 61.0807
RightForeArm  -33.4886 23.1119 6.64927
RightHand  -0.0408539 -5.17174 -3.01921
LeftUpLeg  -3.40588 11.1554 7.39615
LeftLeg  -3.3465 56.7796 -10.8996
LeftFoot  7.3669 0.52508 -3.44062
LeftToes  1.06246e-005 4.65856e-005 -8.18501e-006
118
root  -58.6181 40.5362 18.4494 -176.717 31.1969 173.032
RightUpLeg  -30.5081 -40.5822 6.10127
RightLeg  17.1953 -15.0329 -3.34564
RightFoot  -3.8149 0.330451 -5.42924
RightToes  0.00048216 0.542163 -0.142577
Spine  23.1509 1.69178 2.71634
Spine1  5.53309 3.19559 -3.59965
HEad  -12.7578 -25.1968 10.2141
LeftShoulder1  9.89649 -16.1444 -43.8343
LeftArm  -18.3804 8.20997 -17.5835
LeftForeArm  4.61477 -63.5546 -23.128
LeftHand  -0.25398 0.0180481 5.50724
RightShoulder  5.92783 12.4586 31.1766
RightArm  27.6633 37.8417 62.4166
RightForeArm  -33.2509 23.0196 6.66365
RightHand  -0.0347157 -5.47513 -2.94511
LeftUpLeg  -0.83332 12.4809 9.83704
LeftLeg  -2.10777 57.4949 -10.0628
LeftFoot  7.43264 0.945073 -6.04476
LeftToes  1.06246e-005 4.65856e-005 -8.18501e-006
119
root  -57.5327 40.3953 18.0127 -177.313 34.0899 173.61
RightUpLeg  -30.2969 -39.9378 8.20186
RightLeg  19.8937 -11.041 -4.65131
RightFoot  -5.62198 0.33986 -7.5434
RightToes  0.00048216 0.542163 -0.142577
Spine  20.9738 1.69851 4.86986
Spine1  5.68974 3.68902 -4.45019
HEad  -11.1971 -25.1448 8.6719
LeftShoulder1  9.86885 -15.7715 -44.5974
LeftArm  -17.8325 12.7372 -16.1462
LeftForeArm  6.26274 -65.561 -25.4978
LeftHand  -0.25398 0.0180481 5.50724
RightShoulder  5.8936 12.2644 31.4206
RightArm  30.8215 35.9286 64.2199
RightForeArm  -35.4469 23.0028 6.78402
RightHand  -0.0332174 -5.5153 -3.88329
LeftUpLeg  0.904476 14.4419 12.3468
LeftLeg  4.44623 58.2847 -5.13151
LeftFoot  4.07304 0.95865 -7.19399
LeftToes  1.06246e-005 4.65856e-005 -8.18501e-006
120
root  -56.4184 40.215 17.6636 -178.764 36.9772 173.405
RightUpLeg  -27.5446 -35.0119 6.30089
RightLeg  23.0246 -12.5636 -6.02241
RightFoot  -8.17044 0.181248 -8.47395
RightToes  0.00048216 0.542163 -0.142577
Spine  19.8096 1.70438 5.90044
Spine1  5.59619 3.87028 -4.91367
HEad  -9.69945 -24.2022 7.63404
LeftShoulder1  9.67463 -15.2695 -44.902
LeftArm  -17.9561 17.4076 -15.2274
LeftForeArm  8.93998 -67.9334 -28.8769
LeftHand  -0.25398 0.0180481 5.50724
RightShoulder  5.95599 12.4024 31.4874
RightArm  34.365 34.3089 66.0722
RightForeArm  -38.5473 23.2051 6.90019
RightHand  -0.0403855 -5.23896 -5.52778
LeftUpLeg  1.19925 19.6664 13.5822
LeftLeg  14.3628 51.6105 3.57979
LeftFoot  -2.08616 0.369135 -4.12944
LeftToes  1.06246e-005 4.65856e-005 -8.18501e-006
121
root  -55.3613 40.0513 17.4184 179.234 39.2781 172.908
RightUpLeg  -24.602 -31.3548 4.78083
RightLeg  25.5145 -14.0178 -7.39274
RightFoot  -10.8491 -0.0352524 -8.72036
RightToes  0.00048216 0.542163 -0.142577
Spine  19.6081 1.44589 6.72877
Spine1  5.6 3.82259 -5.37588
HEad  -8.81829 -23.3032 7.86524
LeftShoulder1  9.37675 -14.8232 -44.5666
LeftArm  -18.6439 21.2364 -15.1823
LeftForeArm  12.3337 -70.1276 -32.7687
LeftHand  -0.25398 0.0180481 5.50724
RightShoulder  6.1739 12.6808 32.192
RightArm  36.8959 33.3254 67.0609
RightForeArm  -40.1001 23.7768 6.89763
RightHand  -0.0405182 -5.23801 -6.52097
LeftUpLeg  -0.307096 29.6953 12.6702
LeftLeg  19.8788 30.9991 9.09129
LeftFoot  -7.81518 0.0212167 0.468274
LeftToes  1.06246e-005 4.65856e-005 -8.18501e-006
